<?xml version="1.0" standalone="no"?>
<!DOCTYPE svg PUBLIC "-//W3C//DTD SVG 20010904//EN"
 "http://www.w3.org/TR/2001/REC-SVG-20010904/DTD/svg10.dtd">
<svg version="1.0" xmlns="http://www.w3.org/2000/svg"
 width="1392.000000pt" height="1392.000000pt" viewBox="0 0 1392.000000 1392.000000"
 preserveAspectRatio="xMidYMid meet">
<metadata>
Created by potrace 1.14, written by Peter Selinger 2001-2017
</metadata>
<g transform="translate(0.000000,1392.000000) scale(0.100000,-0.100000)"
fill="#000000" stroke="none">
<path d="M7090 13395 c-30 -7 -70 -20 -88 -29 -43 -22 -104 -89 -118 -129 -9
-24 -18 -33 -40 -35 -16 -2 -33 -7 -39 -11 -5 -5 -28 -9 -50 -10 -22 0 -49 -3
-60 -6 -155 -37 -192 -45 -220 -45 -13 0 -27 -4 -30 -10 -3 -5 -21 -10 -39
-10 -17 0 -36 -4 -42 -9 -12 -12 -124 -41 -157 -41 -14 0 -27 -3 -29 -7 -5
-12 -99 -43 -128 -43 -14 -1 -33 -7 -43 -14 -10 -8 -50 -24 -90 -37 -40 -12
-81 -28 -92 -36 -11 -7 -27 -13 -37 -13 -10 0 -53 -17 -96 -39 -42 -21 -99
-49 -127 -61 -27 -12 -59 -30 -70 -40 -11 -10 -49 -33 -85 -51 -36 -18 -67
-35 -70 -38 -3 -4 -21 -15 -41 -26 -65 -36 -143 -101 -242 -200 -147 -149
-187 -191 -187 -198 0 -8 -59 -94 -87 -127 -10 -11 -18 -24 -19 -28 -1 -6 -20
-53 -44 -107 -20 -46 -89 -354 -136 -610 -8 -44 -21 -107 -29 -140 -8 -33 -28
-123 -44 -200 l-30 -140 -58 -55 c-32 -31 -80 -82 -108 -114 -27 -32 -56 -64
-62 -71 -7 -8 -13 -16 -13 -20 0 -3 -9 -16 -21 -28 -55 -58 -197 -317 -215
-391 -5 -20 -17 -32 -43 -43 -35 -14 -81 -57 -81 -75 0 -11 -385 -198 -407
-198 -8 0 -27 8 -41 19 -107 75 -299 132 -452 133 -160 2 -325 -52 -418 -136
-66 -59 -155 -203 -168 -271 -2 -11 -6 -31 -9 -45 -22 -93 -25 -197 -10 -295
12 -78 11 -86 -13 -160 -52 -158 -14 -302 107 -412 43 -39 172 -108 221 -118
66 -14 65 -19 -27 -80 -106 -70 -194 -137 -248 -188 -101 -95 -265 -160 -494
-193 -25 -4 -54 -8 -64 -10 -16 -3 -98 -10 -217 -19 -25 -2 -78 -4 -117 -4
l-73 -1 0 -466 c0 -453 0 -465 19 -459 25 8 191 23 216 19 11 -1 49 -5 85 -8
120 -10 250 -62 322 -129 31 -29 34 -36 30 -77 -14 -146 -5 -411 19 -560 6
-36 12 -74 14 -85 7 -51 47 -212 64 -260 13 -37 18 -71 14 -112 -5 -66 -10
-108 -12 -108 -1 0 -4 -16 -6 -35 -9 -78 -15 -127 -20 -165 -3 -22 -8 -58 -10
-80 -3 -22 -7 -60 -10 -85 -16 -130 -22 -198 -27 -267 -2 -29 -5 -53 -8 -53
-3 0 -5 -19 -6 -43 -1 -43 -12 -191 -19 -262 -6 -60 -14 -183 -31 -460 -6
-112 -11 -219 -13 -280 -1 -34 -12 -55 -61 -120 -33 -43 -101 -139 -151 -213
l-91 -134 53 6 c30 4 65 8 79 11 14 2 54 6 90 9 l65 6 1 -577 c0 -629 7 -946
39 -1838 12 -347 15 -438 20 -650 3 -121 7 -232 9 -248 2 -15 -1 -30 -6 -33
-4 -3 -5 -10 -1 -17 3 -6 7 -72 8 -146 1 -75 5 -146 9 -159 11 -34 58 -54 107
-46 43 7 99 46 99 70 0 12 641 14 4545 14 l4545 0 6 -24 c8 -33 33 -54 72 -61
37 -6 66 6 86 38 19 29 24 60 31 187 4 58 8 119 10 135 20 169 28 1571 12
2225 -5 179 -11 491 -14 693 l-5 368 66 -25 c36 -14 66 -23 66 -20 0 5 -32 56
-40 64 -3 3 -24 33 -48 68 l-43 62 -4 283 c-2 155 -7 347 -10 427 -3 80 -8
201 -10 269 -3 68 -8 127 -11 132 -3 5 0 9 7 9 8 0 8 4 1 12 -5 7 -10 40 -11
73 -3 70 -8 160 -16 230 -2 28 -7 84 -10 125 -2 41 -7 86 -9 100 -3 14 -7 64
-11 113 -5 75 -4 92 13 125 59 114 117 255 147 357 9 33 20 67 23 75 7 21 13
42 17 65 2 11 4 20 5 20 1 0 3 7 5 15 18 93 35 181 40 205 26 153 27 631 1
673 -14 24 160 93 274 108 82 12 297 4 322 -12 4 -3 8 204 8 460 l0 466 -67 1
c-424 6 -737 83 -886 217 -67 61 -152 125 -252 192 -44 29 -82 55 -84 57 -3 1
5 13 16 26 73 82 209 341 247 472 15 50 31 103 36 118 5 15 7 90 6 165 -3 112
-8 147 -25 191 -56 138 -102 202 -210 293 -50 42 -160 88 -253 106 -71 14
-261 4 -343 -17 -44 -12 -89 -23 -100 -26 -16 -4 -26 7 -50 53 -17 31 -35 62
-42 69 -6 7 -21 29 -34 50 -45 74 -113 159 -180 225 -70 68 -149 128 -168 128
-6 0 -11 5 -11 10 0 6 -6 10 -14 10 -8 0 -16 3 -18 8 -1 4 -33 21 -69 39 l-67
32 -1 108 c-3 130 -6 164 -26 268 -8 44 -15 94 -15 112 0 17 -4 35 -10 38 -5
3 -10 26 -10 50 0 24 -4 47 -10 50 -5 3 -10 19 -10 35 0 16 -4 32 -10 35 -5 3
-10 16 -10 28 0 12 -6 39 -14 62 -8 22 -22 66 -31 97 -9 32 -21 60 -26 64 -5
3 -9 13 -9 23 0 9 -11 39 -24 67 -12 27 -31 72 -42 99 -16 45 -90 183 -103
195 -3 3 -7 14 -9 25 -2 11 -23 45 -47 77 -24 31 -50 69 -58 85 -9 15 -25 35
-36 43 -12 8 -21 20 -21 27 0 7 -4 13 -10 13 -5 0 -10 5 -10 11 0 15 -72 102
-140 169 -153 150 -294 280 -305 280 -4 0 -29 19 -59 45 -6 6 -23 16 -38 24
-15 8 -37 22 -47 33 -11 10 -24 18 -29 18 -5 0 -17 9 -27 20 -10 11 -26 20
-37 20 -10 0 -18 4 -18 8 0 5 -23 19 -50 32 -28 13 -56 30 -62 37 -6 7 -18 13
-28 13 -10 0 -20 6 -23 14 -3 7 -21 16 -40 20 -19 4 -40 13 -47 21 -7 8 -17
15 -22 15 -6 0 -40 14 -77 31 -36 17 -84 40 -107 50 -22 10 -46 19 -53 19 -7
0 -25 6 -39 14 -15 8 -67 26 -117 41 -49 15 -97 30 -105 35 -8 4 -38 12 -66
19 -28 7 -68 18 -90 26 -36 12 -39 16 -46 61 -7 47 -35 83 -65 84 -7 0 -13 4
-13 8 0 7 -14 14 -115 53 -44 18 -93 24 -240 33 -22 1 -65 -3 -95 -9z"/>
</g>
</svg>
